HIERARCHY
ROOT Hips
{
	OFFSET	-17.8289	87.9116	-4.0226
	CHANNELS 6 Xposition Yposition Zposition Zrotation Yrotation Xrotation
	JOINT Chest
	{
		OFFSET	0.0000	16.3830	0.0000
		CHANNELS 3 Zrotation Yrotation Xrotation
		JOINT LeftCollar
		{
			OFFSET	3.8100	32.7660	-3.8100
			CHANNELS 3 Zrotation Yrotation Xrotation
			JOINT LeftUpArm
			{
				OFFSET	14.5367	0.0000	3.8951
				CHANNELS 3 Zrotation Yrotation Xrotation
				JOINT LeftLowArm
				{
					OFFSET	30.2895	0.0000	0.0000
					CHANNELS 3 Zrotation Yrotation Xrotation
					JOINT LeftHand
					{
						OFFSET	27.2415	0.0000	0.0000
						CHANNELS 3 Zrotation Yrotation Xrotation
						End Site
						{
							OFFSET	20.3835	0.0000	0.0000
						}
					}
				}
			}
		}
		JOINT Neck
		{
			OFFSET	0.0000	32.7660	0.0000
			CHANNELS 3 Zrotation Yrotation Xrotation
			JOINT Head
			{
				OFFSET	0.0000	19.6215	0.0000
				CHANNELS 3 Zrotation Yrotation Xrotation
				End Site
				{
					OFFSET	0.0000	0.0000	10.1600
				}
			}
		}
		JOINT RightCollar
		{
			OFFSET	-3.8100	32.7660	-3.8100
			CHANNELS 3 Zrotation Yrotation Xrotation
			JOINT RightUpArm
			{
				OFFSET	-14.5367	0.0000	3.8951
				CHANNELS 3 Zrotation Yrotation Xrotation
				JOINT RightLowArm
				{
					OFFSET	-30.2895	0.0000	0.0000
					CHANNELS 3 Zrotation Yrotation Xrotation
					JOINT RightHand
					{
						OFFSET	-27.2415	0.0000	0.0000
						CHANNELS 3 Zrotation Yrotation Xrotation
						End Site
						{
							OFFSET	-20.3835	0.0000	0.0000
						}
					}
				}
			}
		}
	}
	JOINT LeftUpLeg
	{
		OFFSET	9.3345	0.0000	0.0000
		CHANNELS 3 Zrotation Yrotation Xrotation
		JOINT LeftLowLeg
		{
			OFFSET	0.0000	-45.5295	0.0000
			CHANNELS 3 Zrotation Yrotation Xrotation
			JOINT LeftFoot
			{
				OFFSET	0.0000	-44.1960	0.0000
				CHANNELS 3 Zrotation Yrotation Xrotation
				End Site
				{
					OFFSET	0.0000	0.0000	26.4795
				}
			}
		}
	}
	JOINT RightUpLeg
	{
		OFFSET	-9.3345	0.0000	0.0000
		CHANNELS 3 Zrotation Yrotation Xrotation
		JOINT RightLowLeg
		{
			OFFSET	0.0000	-45.5295	0.0000
			CHANNELS 3 Zrotation Yrotation Xrotation
			JOINT RightFoot
			{
				OFFSET	0.0000	-44.1960	0.0000
				CHANNELS 3 Zrotation Yrotation Xrotation
				End Site
				{
					OFFSET	0.0000	0.0000	26.4795
				}
			}
		}
	}
}
MOTION
Frames: 17
Frame Time: 0.0166666666667
-17.8289	87.9116	-4.0226	2.9195	-61.5178	-8.7556	4.9062	-3.9076	7.6945	-9.4903	-5.9510	1.8339	-36.6972	-31.5879	29.3769	61.6207	-59.9752	-44.3904	-22.2463	-23.3508	-70.2960	-4.1048	21.3271	3.9090	-4.1048	21.3271	3.9090	4.6264	1.8813	-3.7091	33.3592	4.3486	-10.2275	-64.2026	72.5491	-57.6132	-15.8120	21.2432	-53.7335	30.9304	18.1058	-3.7008	-0.2557	26.6777	45.3632	-6.7301	-0.5581	-6.7168	-11.4793	13.9719	-8.4210	8.2670	5.4204	15.0604	1.3160	25.5498	-2.6558	
-17.8289	87.8851	-4.0226	2.6339	-61.6314	-8.5151	5.4909	-3.2402	7.7438	-9.4861	-5.9002	1.6423	-36.3505	-31.4811	29.5111	62.0036	-59.9226	-45.0506	-21.9700	-23.6200	-70.2840	-4.0657	21.7769	3.9619	-4.0657	21.7769	3.9619	4.3390	1.7975	-3.6471	33.2370	4.7197	-11.3198	-65.2283	72.0694	-58.8687	-16.8162	20.4977	-56.2305	31.0469	17.5720	-2.4341	-0.1849	27.3242	42.2522	-7.5698	-1.8197	-7.1737	-11.3857	13.8137	-8.5039	8.0879	5.4493	14.9933	1.4255	25.7814	-2.5977	
-17.5688	87.8317	-3.9610	2.2851	-61.6061	-8.2124	5.9903	-2.7338	7.7732	-9.5081	-5.8524	1.4899	-36.2818	-31.5273	29.7966	59.4824	-59.4138	-42.0527	-20.6830	-25.0101	-70.5127	-3.9709	22.3740	4.0260	-3.9709	22.3740	4.0260	4.0819	1.8113	-3.5585	33.1318	6.3658	-13.4614	-63.3022	71.7513	-56.9025	-16.7424	19.6782	-57.7290	31.1680	17.3544	-1.4486	-0.3869	27.4854	39.2458	-8.2686	-2.7933	-7.6286	-11.4080	13.6207	-8.5649	8.1341	5.4728	14.9340	1.3449	25.8257	-2.6551	
-17.3223	87.7646	-3.8476	1.8555	-61.4563	-7.8897	6.6188	-1.9671	7.8970	-9.6074	-6.0422	1.3428	-36.5840	-31.8714	30.3699	57.4023	-58.6619	-39.4783	-19.7742	-26.0526	-70.5199	-4.0236	22.2414	4.0813	-4.0236	22.2414	4.0813	3.7867	1.4907	-3.5621	32.9887	7.2079	-14.8673	-67.4600	71.0636	-61.7670	-15.4567	18.2690	-57.9667	31.1685	17.3097	-0.9459	-0.9668	27.2009	35.7769	-8.5779	-3.7865	-7.4391	-11.4503	13.6491	-8.3608	7.9322	5.2870	14.7276	1.3547	25.8017	-2.8386	
-17.0890	87.7006	-3.4328	1.4469	-61.1177	-7.4975	7.1569	-1.3730	7.9461	-9.7664	-6.5728	1.2786	-35.3805	-30.0519	29.9968	59.8677	-58.8832	-41.9183	-19.4960	-26.5626	-70.4380	-3.8964	23.1535	4.1354	-3.8964	23.1535	4.1354	3.6329	1.4439	-3.6141	32.6451	8.3659	-16.2764	-66.0635	70.7381	-60.3168	-16.0398	17.7225	-60.3425	31.1291	17.2994	-0.6795	-1.1994	26.8803	33.0529	-9.1780	-5.7575	-8.1018	-11.5731	13.6168	-8.2960	7.6540	5.0123	14.5091	1.5640	25.8155	-2.9608	
-16.6791	87.6155	-3.0477	1.1157	-60.5794	-6.9913	7.6604	-0.6954	7.8610	-9.8461	-6.9921	1.1721	-35.0867	-29.3008	30.1055	61.5666	-58.5368	-43.2319	-19.6153	-27.0705	-70.4702	-3.9010	23.3671	4.1197	-3.9010	23.3671	4.1197	3.4128	0.9526	-3.8067	32.4393	9.5560	-17.1676	-68.5142	70.1327	-63.3781	-15.1202	16.5772	-60.9274	31.0196	17.2784	-0.6994	-1.6142	26.5637	29.8490	-9.6249	-6.9577	-7.4840	-11.8575	13.3296	-8.6732	7.6642	4.8735	14.6703	1.6361	25.6464	-3.1517	
-16.1673	87.4824	-2.8227	0.8055	-59.9528	-6.4418	8.0083	0.0266	7.6737	-9.8011	-6.5767	1.0754	-34.9341	-28.9514	30.6171	63.5146	-58.0852	-44.7505	-19.8023	-27.7195	-70.4763	-3.7555	23.7241	4.1276	-3.7555	23.7241	4.1276	3.2196	1.0409	-3.8050	32.2482	9.9716	-18.3670	-67.6066	69.7411	-62.3620	-15.5904	16.4107	-63.8861	31.0898	17.2835	-0.3920	-2.5868	26.0984	26.4498	-10.0737	-8.2786	-7.5976	-12.1362	13.2503	-9.0193	7.6401	4.5863	14.9393	1.4695	25.3180	-3.6166	
-15.8330	87.3622	-2.5035	0.3905	-58.9645	-5.7998	8.2465	0.2560	7.3918	-9.7643	-6.6009	1.0991	-34.3610	-27.9273	30.4803	65.7646	-57.8294	-46.7027	-19.5206	-27.2746	-70.0350	-3.5390	24.1711	4.1351	-3.5390	24.1711	4.1351	3.1095	1.1399	-3.6566	32.1330	11.9098	-19.4158	-67.7821	68.8421	-62.5728	-14.8160	15.2689	-64.8546	31.1473	17.0898	-0.4099	-3.7431	25.4537	23.0569	-10.2803	-8.8843	-7.1877	-12.3254	12.9499	-9.1779	7.5368	4.1684	15.1486	1.2911	25.0595	-4.1401	
-15.5643	87.2548	-2.1744	0.0600	-58.0511	-5.4099	8.5036	0.7990	7.3594	-9.7993	-6.7637	1.1112	-34.1002	-27.7591	30.7429	66.9562	-57.4208	-47.6660	-19.4022	-27.0252	-69.7291	-3.4456	24.4728	4.0518	-3.4456	24.4728	4.0518	2.9724	1.1053	-3.4504	32.0731	13.3271	-20.3041	-67.7021	67.9722	-62.2644	-14.4325	14.6346	-67.2252	31.1727	16.9151	-0.4819	-4.9568	24.6509	19.7287	-10.3597	-9.0204	-6.9811	-12.4727	12.7125	-9.1727	7.3113	3.8729	15.3820	1.3763	24.7520	-4.6251	
-15.2498	87.1399	-1.7879	-0.3111	-56.9300	-5.0551	8.8701	1.5917	7.4325	-9.9661	-7.0975	1.0873	-32.6818	-25.1537	29.9156	71.7693	-58.1950	-52.3949	-19.4312	-27.0787	-69.5023	-3.5321	24.3164	3.9049	-3.5321	24.3164	3.9049	2.6888	0.9046	-3.1826	32.0943	14.5719	-21.1870	-69.9391	67.2682	-64.9847	-13.4892	13.4835	-67.8470	31.1501	16.3160	-0.7855	-5.6265	24.1337	17.9832	-10.5133	-9.2350	-8.2058	-12.5575	12.6300	-9.0178	7.1463	3.4999	15.7137	0.8638	24.0747	-5.5124	
-15.0787	87.0306	-1.3927	-0.6345	-55.7661	-4.8250	9.1664	2.3156	7.5221	-10.1171	-7.4625	1.0946	-32.4278	-25.2701	30.2984	70.1340	-55.6653	-50.3339	-19.7587	-28.2180	-69.2857	-3.6298	24.1891	3.7878	-3.6298	24.1891	3.7878	2.5362	0.4713	-3.0150	32.2009	16.2297	-21.4590	-69.6749	66.0774	-64.2323	-12.9528	13.0105	-69.3042	31.2950	16.2883	-0.5812	-6.3042	23.1437	14.5912	-10.9268	-8.6006	-7.6008	-12.4970	12.6487	-8.7276	6.9443	2.6456	15.7685	0.6435	23.7885	-5.8955	
-14.9844	86.9889	-1.3393	-0.8270	-54.3794	-4.8522	9.2493	1.8103	7.5837	-10.3001	-6.6088	1.0056	-30.8016	-23.1699	28.3576	73.6175	-58.0835	-54.4043	-19.1791	-27.3629	-69.4671	-3.7779	24.5940	3.7044	-3.7779	24.5940	3.7044	2.3766	1.4302	-2.6104	32.2610	17.4622	-21.8208	-73.1755	65.8404	-69.3185	-12.2757	11.2319	-66.4156	31.2202	15.8642	-0.7388	-6.6615	22.9066	13.0051	-10.9092	-8.2398	-7.8589	-12.4294	12.3170	-8.2714	6.5865	2.7975	16.4616	0.4469	22.7260	-6.9451	
-14.9210	86.8715	-0.8200	-0.9725	-53.1742	-4.8117	9.5083	3.7751	7.8136	-10.4016	-7.9707	1.0592	-29.9462	-22.4868	27.7203	71.8121	-57.3289	-53.0675	-18.6024	-27.8944	-69.8001	-3.8852	23.8958	3.6506	-3.8852	23.8958	3.6506	2.3398	0.1930	-2.5940	32.4099	18.7587	-21.8762	-73.4859	64.8899	-69.5883	-11.3139	10.9269	-71.5542	31.1361	15.8664	-0.9066	-6.3005	23.8494	11.2463	-11.4464	-7.7156	-8.0489	-12.4108	12.4223	-7.9643	6.3304	2.2139	16.8137	0.1633	22.0932	-7.6400	
-14.8819	86.8072	-0.6051	-1.2432	-51.7933	-4.5393	9.6295	3.4026	7.6523	-10.5945	-6.7079	0.8576	-28.9139	-21.5363	26.4074	70.4497	-57.8349	-52.4841	-18.1602	-28.7885	-69.9257	-4.0538	24.2551	3.6411	-4.0538	24.2551	3.6411	2.2931	1.5887	-2.3186	32.4254	19.6535	-22.0109	-74.8476	64.5808	-71.9307	-10.3866	9.9734	-73.5001	30.9856	16.1785	-1.3393	-5.9690	24.2129	10.3332	-11.7611	-8.2779	-7.5167	-12.4600	12.6942	-7.6853	5.9770	1.7299	17.5072	-0.0997	20.9970	-8.7540	
-14.8690	86.6440	0.1018	-1.6232	-50.3015	-4.0691	10.0210	5.5974	7.7601	-10.6032	-8.2163	0.7705	-28.1118	-20.9688	25.3355	67.9586	-57.5924	-50.7647	-17.7607	-29.6885	-70.0712	-4.1462	23.2607	3.5964	-4.1462	23.2607	3.5964	2.5302	0.2607	-2.7202	32.8307	22.1515	-20.7858	-74.0571	63.0030	-70.6116	-9.7041	9.2708	-74.7442	30.7993	16.4706	-2.0775	-5.4175	25.5554	9.5331	-12.0974	-5.3985	-8.3527	-12.4441	13.8720	-7.3667	5.4744	-0.2259	17.7006	-0.3170	20.2948	-9.5386	
-14.9132	86.5400	0.5869	-2.0958	-48.6763	-3.5181	10.2604	6.1234	7.5101	-10.6363	-7.7435	0.6159	-27.5787	-21.0811	24.8547	66.3005	-57.3381	-49.5745	-17.3859	-29.8333	-70.4235	-4.1837	23.0627	3.6494	-4.1837	23.0627	3.6494	2.7906	1.4421	-2.6442	32.7858	22.7937	-20.6851	-73.8165	62.0006	-70.2467	-8.7635	8.8455	-76.6169	30.7037	15.8268	-3.0567	-5.0199	27.9864	8.9457	-12.1035	-6.8682	-7.4055	-12.4829	13.8564	-7.1708	5.1884	-0.9525	18.1516	-0.2000	19.4557	-10.3113	
-14.6584	86.3258	1.1950	-2.5603	-47.0504	-3.0576	10.4987	6.9449	7.2736	-10.6044	-7.9195	0.5972	-26.5352	-19.5051	22.7289	66.9516	-59.3484	-50.6818	-16.5627	-28.5717	-71.0184	-4.1326	22.6813	3.7637	-4.1326	22.6813	3.7637	2.9830	1.6264	-2.5286	33.3472	24.3748	-19.6678	-73.5134	60.8306	-69.6513	-7.6407	8.3695	-78.6323	30.8031	17.1963	-4.3387	-4.6297	27.7149	9.5614	-11.7209	-3.0892	-8.3916	-12.5882	13.6452	-6.9199	5.1491	-1.2599	18.7654	-0.3353	18.3751	-11.2501	
